<?xml version="1.0" encoding="UTF-8" standalone="no" ?>
<!DOCTYPE svg PUBLIC "-//W3C//DTD SVG 1.1//EN" "http://www.w3.org/Graphics/SVG/1.1/DTD/svg11.dtd">
<svg xmlns="http://www.w3.org/2000/svg" xmlns:xlink="http://www.w3.org/1999/xlink" version="1.1" width="1080" height="1080" viewBox="0 0 1080 1080" xml:space="preserve">
<desc>Created with Fabric.js 4.2.0</desc>
<defs>
</defs>
<g transform="matrix(1 0 0 1 540 540)" id="93fc2f31-611f-4e06-8be4-ea7cfd5bd50b"  >
<rect style="stroke: none; stroke-width: 1; stroke-dasharray: none; stroke-linecap: butt; stroke-dashoffset: 0; stroke-linejoin: miter; stroke-miterlimit: 4; fill: rgb(1,1,1); fill-rule: nonzero; opacity: 1;" vector-effect="non-scaling-stroke"  x="-540" y="-540" rx="0" ry="0" width="1080" height="1080" />
</g>
<g transform="matrix(1 0 0 1 540 540)" id="215f40f8-c74d-4bee-a36b-cf8ee705fc15"  >
</g>
<g transform="matrix(6.12 0 0 6.12 470.76 544.96)"  >
<path style="stroke: rgb(0,0,0); stroke-width: 0; stroke-dasharray: none; stroke-linecap: butt; stroke-dashoffset: 0; stroke-linejoin: miter; stroke-miterlimit: 4; fill: rgb(255,255,255); fill-rule: nonzero; opacity: 1;" vector-effect="non-scaling-stroke"  transform=" translate(-50, -50)" d="M 16.28 19.945 L 19.957 16.32 C 22.060000000000002 14.166 25.578000000000003 14.166 27.681 16.32 L 50.007000000000005 38.595 L 72.333 16.32 C 74.43599999999999 14.166 77.954 14.166 80.054 16.32 L 83.68 19.945 C 85.834 22.046 85.834 25.566000000000003 83.68 27.668 L 61.405 49.993 L 83.68 72.32 C 85.834 74.422 85.834 77.939 83.68 80.04299999999999 L 80.054 83.72099999999999 C 77.95400000000001 85.82 74.436 85.82 72.333 83.72099999999999 L 50.007 61.393 L 27.681 83.721 C 25.578 85.82000000000001 22.060000000000002 85.82000000000001 19.957 83.721 L 16.28 80.043 C 14.180000000000001 77.93900000000001 14.180000000000001 74.42200000000001 16.28 72.32000000000001 L 38.606 49.99300000000001 L 16.28 27.667 C 14.18 25.566 14.18 22.046 16.28 19.945 z" stroke-linecap="round" />
</g>
<g transform="matrix(10.11 0 0 10.11 808.11 527.81)" id="d8e585d3-8649-4a73-ab31-b218d0ca0508"  >
<circle style="stroke: rgb(0,0,0); stroke-width: 0; stroke-dasharray: none; stroke-linecap: butt; stroke-dashoffset: 0; stroke-linejoin: miter; stroke-miterlimit: 4; fill: rgb(255,255,255); fill-rule: nonzero; opacity: 1;" vector-effect="non-scaling-stroke"  cx="0" cy="0" r="35" />
</g>
<g transform="matrix(9.32 0 0 9.32 892.58 529.84)" id="ed5b1516-4f7d-4be4-b5e0-79229e940c26"  >
<circle style="stroke: rgb(0,0,0); stroke-width: 0; stroke-dasharray: none; stroke-linecap: butt; stroke-dashoffset: 0; stroke-linejoin: miter; stroke-miterlimit: 4; fill: rgb(1,1,1); fill-rule: nonzero; opacity: 1;" vector-effect="non-scaling-stroke"  cx="0" cy="0" r="35" />
</g>
<g transform="matrix(4.04 0 0 13.93 912.75 556.64)" id="7ecbfc9d-2d84-472a-8a53-71406674437a"  >
<rect style="stroke: rgb(0,0,0); stroke-width: 0; stroke-dasharray: none; stroke-linecap: butt; stroke-dashoffset: 0; stroke-linejoin: miter; stroke-miterlimit: 4; fill: rgb(1,1,1); fill-rule: nonzero; opacity: 1;" vector-effect="non-scaling-stroke"  x="-33.085" y="-33.085" rx="0" ry="0" width="66.17" height="66.17" />
</g>
</svg>